#!OML:ASF I:\Actors\actors\Patient Classification 2\Patient 1\Session 1\actor1.ASF
:FULLY-SPECIFIED
:DEGREES
410
root 0.410449 18.8275 5.50426 21.2811 8.55365 -5.41707
lowerback 27.152 -2.45712 -1.92782
upperback 4.90036 -3.09658 5.03152
thorax -9.14158 -1.32519 7.85994
lowerneck 0.446662 1.62469 4.46471
upperneck -4.01611 2.16267 -2.554
head -1.24813 1.05707 -1.58164
rclavicle -4.65156e-014 5.24792e-014
rhumerus -14.1569 40.0653 -76.5188
rradius 64.5845
rwrist 6.06116
rhand -14.4935 -51.4925
rfingers 7.12502
rthumb 11.6532 -81.1485
lclavicle -4.65156e-014 5.24792e-014
lhumerus 22.6334 -18.9472 79.2323
lradius 48.5405
lwrist -11.9905
lhand -13.2017 -19.1188
lfingers 7.12502
lthumb 12.8988 10.4626
rfemur -14.7335 -8.82916 19.2367
rtibia -2.38542e-014
rfoot -14.2894 -13.9417
rtoes -3.3841
lfemur -38.2877 -2.87524 -10.427
ltibia 34.4778
lfoot -17.3313 4.21977
ltoes -54.6471
411
root 0.396876 18.8364 5.51298 21.2163 8.29089 -5.28897
lowerback 27.2508 -2.58324 -2.16806
upperback 4.86331 -3.32115 5.07204
thorax -9.18326 -1.42158 8.13326
lowerneck 0.774928 1.91246 5.03112
upperneck -4.09476 2.54815 -3.27275
head -1.30466 1.25434 -1.92473
rclavicle -2.38542e-015 1.59028e-015
rhumerus -13.3085 41.3632 -75.8515
rradius 64.5907
rwrist 5.91815
rhand -14.6676 -51.5834
rfingers 7.12502
rthumb 11.4853 -81.2488
lclavicle -2.38542e-015 1.59028e-015
lhumerus 21.9959 -17.9671 79.3688
lradius 48.5294
lwrist -12.213
lhand -13.631 -19.7865
lfingers 7.12502
lthumb 12.4849 9.82055
rfemur -14.6348 -8.6149 19.0455
rtibia 2.94201e-014
rfoot -14.3217 -13.9349
rtoes -3.19573
lfemur -37.9542 -2.65582 -10.6308
ltibia 34.1914
lfoot -17.2678 4.25209
ltoes -54.7748
412
root 0.381851 18.8455 5.52091 21.1608 7.99827 -5.11695
lowerback 27.3932 -2.68228 -2.40039
upperback 4.80017 -3.51521 5.05246
thorax -9.28392 -1.50074 8.32846
lowerneck 0.915769 2.16282 5.27989
upperneck -4.02283 2.88374 -3.63527
head -1.285 1.42609 -2.09224
rclavicle 4.77083e-014 -2.14687e-014
rhumerus -12.3722 42.6498 -74.9752
rradius 64.7505
rwrist 5.35552
rhand -14.4823 -51.6147
rfingers 7.12502
rthumb 11.664 -81.2701
lclavicle 4.77083e-014 -2.14687e-014
lhumerus 21.3894 -17.0835 79.4414
lradius 48.4122
lwrist -12.5733
lhand -14.1804 -20.4941
lfingers 7.12502
lthumb 11.9552 9.14452
rfemur -14.5539 -8.38747 18.8085
rtibia -2.14687e-014
rfoot -14.3579 -13.9599
rtoes -2.96031
lfemur -37.6243 -2.45191 -10.8745
ltibia 33.9002
lfoot -17.2026 4.30252
ltoes -54.8706
413
root 0.366602 18.8545 5.52731 21.169 7.69625 -4.89963
lowerback 27.4399 -2.77426 -2.5791
upperback 4.75582 -3.69305 4.974
thorax -9.32395 -1.57756 8.4088
lowerneck 0.870333 2.39269 5.38904
upperneck -3.8592 3.18726 -3.82407
head -1.20664 1.58031 -2.17254
rclavicle 1.59028e-015 4.37326e-015
rhumerus -11.328 43.8047 -74.028
rradius 64.95
rwrist 4.70455
rhand -14.1802 -51.8103
rfingers 7.12502
rthumb 11.9553 -81.4489
lclavicle 1.59028e-015 4.37326e-015
lhumerus 20.8836 -16.266 79.462
lradius 48.3173
lwrist -12.8218
lhand -14.8079 -21.4672
lfingers 7.12502
lthumb 11.35 8.2057
rfemur -14.5473 -8.16875 18.5367
rtibia 3.4191e-014
rfoot -14.3125 -14.0232
rtoes -3.29409
lfemur -37.3595 -2.31104 -11.1355
ltibia 33.5966
lfoot -17.175 4.35638
ltoes -54.8623
414
root 0.351258 18.8632 5.53355 21.187 7.45414 -4.70849
lowerback 27.4096 -2.88978 -2.66772
upperback 4.75599 -3.87502 4.90604
thorax -9.27862 -1.66406 8.43923
lowerneck 0.830655 2.62256 5.70672
upperneck -3.75637 3.48832 -4.21817
head -1.14198 1.73306 -2.3593
rclavicle -6.63941e-014 3.06128e-014
rhumerus -10.4211 44.6396 -73.4003
rradius 65.0655
rwrist 4.4891
rhand -13.8634 -52.1275
rfingers 7.12502
rthumb 12.2608 -81.7481
lclavicle -6.63941e-014 3.06128e-014
lhumerus 20.4447 -15.6155 79.3788
lradius 49.0436
lwrist -11.1442
lhand -13.5993 -21.1826
lfingers 7.12502
lthumb 12.5154 8.42263
rfemur -14.5488 -7.99606 18.3144
rtibia 3.33958e-014
rfoot -14.252 -14.0736
rtoes -3.68094
lfemur -37.1159 -2.20709 -11.3442
ltibia 33.2794
lfoot -17.123 4.32472
ltoes -54.722
415
root 0.334286 18.872 5.53953 21.1776 7.28749 -4.54834
lowerback 27.4395 -3.03829 -2.70661
upperback 4.73951 -4.08172 4.86148
thorax -9.28049 -1.7604 8.48238
lowerneck 0.771756 2.87533 5.95572
upperneck -3.59629 3.82002 -4.57877
head -1.05296 1.90163 -2.52163
rclavicle -1.98785e-014 1.19271e-014
rhumerus -9.4772 45.5114 -72.6437
rradius 65.2689
rwrist 4.19794
rhand -13.786 -52.1614
rfingers 7.12502
rthumb 12.3354 -81.7775
lclavicle -1.98785e-014 1.19271e-014
lhumerus 19.8933 -14.8468 79.3379
lradius 49.3812
lwrist -10.6475
lhand -13.3788 -21.6597
lfingers 7.12502
lthumb 12.728 7.93234
rfemur -14.518 -7.88066 18.1472
rtibia -1.03368e-014
rfoot -14.2222 -14.0921
rtoes -3.65424
lfemur -36.8637 -2.14728 -11.499
ltibia 32.958
lfoot -17.0055 4.32989
ltoes -54.6387
